<svg width="174" height="39" viewBox="0 0 174 39" fill="none" xmlns="http://www.w3.org/2000/svg">
<g clip-path="url(#clip0_2_69)">
<path d="M13.8541 10.7885C16.8476 10.7885 19.1808 11.579 20.8536 13.16C22.5265 14.741 23.3629 17.2764 23.3629 20.766V38.5085H17.721V21.847C17.721 19.7336 17.2968 18.1485 16.4484 17.0918C15.5999 16.035 14.2872 15.5066 12.5103 15.5066C9.933 15.5066 8.1441 16.3175 7.14362 17.9392C6.14313 19.5609 5.64289 21.912 5.64289 24.9925V38.5085H0V11.3044H4.3942L5.18657 14.9907H5.49864C6.05107 14.0665 6.7825 13.2678 7.64789 12.6437C8.52568 12.0191 9.49976 11.5497 10.5295 11.2553C11.611 10.9417 12.73 10.7846 13.8541 10.7885ZM43.5352 15.7033H37.076V38.5085H31.4331V15.7033H27.0869V12.9264L31.4331 11.2308V9.33881C31.4331 7.02886 31.7893 5.19395 32.5017 3.8341C33.1646 2.52192 34.2505 1.4847 35.5753 0.898249C36.9119 0.300315 38.5088 0.00134927 40.3658 0.00134927C41.4855 -0.00776056 42.6033 0.0951328 43.7035 0.308564C44.5685 0.473379 45.4196 0.70757 46.2488 1.00897L44.7841 5.38318C44.2399 5.20297 43.6316 5.03521 42.9593 4.87989C42.2496 4.72017 41.5247 4.64189 40.7981 4.64649C39.5175 4.64649 38.5769 5.05604 37.9766 5.87514C37.3762 6.69424 37.076 7.89018 37.076 9.46296V11.306H43.5352V15.7033ZM56.959 34.3308C57.6922 34.3309 58.4237 34.2607 59.1441 34.1211C59.8101 33.996 60.4678 33.8279 61.1131 33.6178V37.9925C60.3317 38.3181 59.5185 38.557 58.6874 38.7052C57.6664 38.9046 56.6292 39.0033 55.5898 39.0001C54.2005 39.0224 52.8209 38.7592 51.5327 38.2261C50.3134 37.6929 49.3063 36.7531 48.6753 35.5597C47.971 34.2983 47.6188 32.5535 47.6188 30.3253V15.7033H43.992V13.124L47.8819 11.0842L49.7308 5.26008H53.2846V11.3054H60.8965V15.7044H53.2853V30.2525C53.2853 31.6287 53.6214 32.6526 54.2938 33.3243C54.9662 33.9959 55.8546 34.3314 56.9592 34.3308H56.959ZM78.8114 15.7033H72.3521V38.5085H66.709V15.7033H62.363V12.9264L66.7092 11.2308V9.33881C66.7092 7.02886 67.0654 5.19395 67.7778 3.8341C68.4407 2.52192 69.5266 1.4847 70.8514 0.898249C72.1881 0.300315 73.7849 0.00134927 75.6419 0.00134927C76.7616 -0.00776056 77.8795 0.0951328 78.9796 0.308564C79.8447 0.473379 80.6957 0.70757 81.5249 1.00897L80.059 5.38192C79.5148 5.20171 78.9065 5.03395 78.2341 4.87863C77.5245 4.71891 76.7996 4.64063 76.073 4.64523C74.7923 4.64523 73.8518 5.05478 73.2515 5.87388C72.6511 6.69298 72.3509 7.88892 72.3509 9.46169V11.3048H78.8101L78.8114 15.7033ZM88.9685 11.3044V38.5085H83.3256V11.3044H88.9685ZM86.183 0.884829C86.9874 0.865644 87.7758 1.11602 88.4282 1.59782C89.0605 2.07315 89.3767 2.89232 89.3767 4.05533C89.3767 5.20171 89.0605 6.01676 88.4282 6.50048C87.7787 6.98946 86.9892 7.2444 86.183 7.22542C85.3685 7.25203 84.569 6.9966 83.9139 6.50048C83.2976 6.01718 82.9894 5.20213 82.9894 4.05533C82.9894 2.89218 83.2976 2.07301 83.9139 1.59782C84.5721 1.10895 85.3704 0.858105 86.1832 0.884829H86.183ZM106.642 10.7885C109.012 10.7885 111.045 11.2881 112.742 12.2874C114.429 13.2766 115.791 14.7562 116.655 16.5388C117.568 18.3737 118.024 20.569 118.024 23.1247V26.2212H100.279C100.343 28.8588 101.036 30.8904 102.356 32.3158C103.677 33.7412 105.53 34.4542 107.915 34.4548C109.454 34.4728 110.989 34.3038 112.489 33.9515C113.927 33.5857 115.329 33.0881 116.68 32.4647V37.157C115.385 37.7842 114.024 38.2543 112.622 38.5578C110.992 38.8764 109.335 39.0246 107.676 39.0001C105.067 39.0001 102.773 38.48 100.796 37.4397C98.825 36.4056 97.2082 34.7815 96.1613 32.7836C95.0487 30.7193 94.4924 28.1554 94.4924 25.0917C94.4924 22.044 94.9966 19.4555 96.0052 17.3262C97.0137 15.1969 98.4304 13.5752 100.255 12.4611C102.08 11.346 104.209 10.7885 106.643 10.7885H106.642ZM106.642 15.1382C104.866 15.1382 103.429 15.728 102.332 16.9076C101.236 18.0873 100.591 19.8157 100.399 22.093H112.502C112.509 20.8567 112.285 19.6304 111.841 18.4804C111.457 17.4824 110.787 16.626 109.92 16.0229C109.064 15.4331 107.971 15.1382 106.643 15.1382H106.642ZM132.337 39.0001C129.168 39.0001 126.626 37.8164 124.713 35.449C122.799 33.0816 121.843 29.5879 121.844 24.968C121.844 20.2986 122.817 16.768 124.762 14.3763C126.707 11.9846 129.272 10.7886 132.458 10.7885C133.657 10.7649 134.85 10.952 135.988 11.3415C136.935 11.6752 137.817 12.1786 138.593 12.8283C139.305 13.4326 139.931 14.1357 140.454 14.9171H140.718C140.638 14.4092 140.546 13.6761 140.442 12.7178C140.342 11.8326 140.29 10.9424 140.286 10.0514V0.270608H145.953V38.5085H141.534L140.525 34.7968H140.285C139.792 35.5976 139.181 36.3149 138.472 36.9226C137.701 37.5786 136.823 38.0905 135.879 38.4347C134.74 38.8345 133.541 39.0259 132.337 39.0001ZM133.922 34.3063C136.339 34.3063 138.044 33.5933 139.036 32.1673C140.028 30.7413 140.54 28.6033 140.573 25.7533V24.9915C140.573 21.9438 140.093 19.6051 139.132 17.9754C138.172 16.3458 136.419 15.5307 133.874 15.5303C131.84 15.5303 130.292 16.37 129.227 18.0493C128.163 19.7286 127.63 22.0677 127.631 25.0666C127.631 28.0646 128.163 30.3542 129.227 31.9352C130.292 33.5162 131.857 34.3066 133.922 34.3063H133.922Z" fill="white"/>
<path d="M165.019 0.270325L164.059 9.6579L173.28 6.97936L174 12.2138L165.38 13.0002L170.974 20.6428L166.315 23.2221L162.258 14.9896L158.631 23.1976L153.782 20.6417L159.328 12.9991L150.756 12.1882L151.572 6.97831L160.625 9.65686L159.665 0.270325H165.019Z" fill="#FAFF00"/>
</g>
<defs>
<clipPath id="clip0_2_69">
<rect width="174" height="39" fill="white"/>
</clipPath>
</defs>
</svg>
